# xmcd
#
# Track frame offsets:
#	150
#	13527
#	29150
#	42060
#	56900
#	70545
#	84792
#	97905
#	112052
#	122677
#	134095
#	145807
#	160442
#	174692
#
# Disc length: 2514 seconds
#
# Revision: 0
# Processed by: cddbd v1.4PL0 Copyright (c) Steve Scherf et al.
# Submitted via: dBpowerAMP V4.0
#
DISCID=c109d00e
DTITLE=Billie Holiday - Billie Holiday Gold
DYEAR=1900
DGENRE=Blues
TTITLE0=Summertime
TTITLE1=I can't give you anything but love
TTITLE2=A fine romance
TTITLE3=Pennies from heaven
TTITLE4=The mood that i'm in
TTITLE5=That's like i guess
TTITLE6=I've got my love to keep me warm
TTITLE7=Carrelesly
TTITLE8=Deour ahead
TTITLE9=How could you
TTITLE10=Me myself and I
TTITLE11=Who loves you
TTITLE12=This is my last affair
TTITLE13=Mean to me
EXTD=
EXTT0=
EXTT1=
EXTT2=
EXTT3=
EXTT4=
EXTT5=
EXTT6=
EXTT7=
EXTT8=
EXTT9=
EXTT10=
EXTT11=
EXTT12=
EXTT13=
PLAYORDER=
